<svg width="67" height="43" viewBox="0 0 67 43" fill="none" xmlns="http://www.w3.org/2000/svg">
<path d="M54.5215 1.12592L36.1259 6.75001L39.8168 18.8221C41.3698 23.9019 46.7468 26.7609 51.8266 25.2078C56.9064 23.6548 59.7654 18.2778 58.2123 13.198L54.5215 1.12592Z" fill="#EDEFEE" stroke="#646363" stroke-width="1.80338"/>
<line y1="-0.901692" x2="21.0395" y2="-0.901692" transform="matrix(-0.956305 0.292372 0.292372 0.956305 58.6353 11.4973)" stroke="#646363" stroke-width="1.80338"/>
<line y1="-0.901692" x2="18.0338" y2="-0.901692" transform="matrix(-0.956305 0.292372 0.292372 0.956305 64.7554 36.6557)" stroke="#646363" stroke-width="1.80338"/>
<line y1="-0.901692" x2="15.0282" y2="-0.901692" transform="matrix(-0.292372 -0.956305 -0.956305 0.292372 55.2702 39.5556)" stroke="#646363" stroke-width="1.80338"/>
<path d="M30.0666 6.75003L11.6711 1.12594L7.98027 13.198C6.42722 18.2778 9.28621 23.6548 14.366 25.2079C19.4458 26.7609 24.8228 23.9019 26.3758 18.8221L30.0666 6.75003Z" fill="#EDEFEE" stroke="#646363" stroke-width="1.80338"/>
<line y1="-0.901692" x2="21.0395" y2="-0.901692" transform="matrix(-0.956305 -0.292372 -0.292372 0.956305 27.6775 17.6486)" stroke="#646363" stroke-width="1.80338"/>
<line y1="-0.901692" x2="18.0338" y2="-0.901692" transform="matrix(-0.956305 -0.292372 -0.292372 0.956305 18.683 41.9283)" stroke="#646363" stroke-width="1.80338"/>
<line y1="-0.901692" x2="15.0282" y2="-0.901692" transform="matrix(0.292372 -0.956305 -0.956305 -0.292372 9.19781 39.0284)" stroke="#646363" stroke-width="1.80338"/>
</svg>
